<svg xmlns="http://www.w3.org/2000/svg" width="36" height="12" fill="none"><path fill="#000" d="M6 4h2v4H6V4zM0 4h2v4H0V4zm3 0h2v4H3V4zm29.864.503h2.493v.578h-2.492v2.51c0 .887.308 1.415 1.058 1.415.464 0 .96-.349 1.07-1.196l.662.13c.011.946-.794 1.713-1.743 1.713-1.19 0-1.853-.767-1.842-2.161V5.08h-.87v-.578h.871V3.197h.806l-.011 1.305z"/><path fill="#000" fill-rule="evenodd" d="M31.726 2.887h1.497l-.011 1.305h2.49v1.2H33.21v2.199c0 .42.076.704.195.873.101.145.25.23.52.23.229 0 .63-.17.727-.92l.044-.34 1.302.254.003.249c.013 1.1-.926 2.028-2.088 2.028-.685 0-1.256-.225-1.644-.68-.378-.44-.548-1.06-.542-1.794V5.392h-.872v-1.2h.872V2.887zm.689 4.607c-.005.659.15 1.12.398 1.411.238.279.594.437 1.1.437a1.41 1.41 0 0 0 1.378-1.155l-.023-.004c-.206.732-.735 1.134-1.345 1.134-.481 0-.861-.178-1.101-.519-.223-.317-.302-.741-.302-1.207V4.814h-.003l.011-1.305h-.113v3.985z" clip-rule="evenodd"/><path fill="#000" d="M28.084 9.663c-1.6 0-2.625-1.115-2.625-2.58 0-1.514 1.037-2.63 2.592-2.63 1.29 0 2.47 1.006 2.427 2.66h-4.203c0 1.205.772 1.903 1.809 1.903.816 0 1.456-.558 1.555-1.186l.761.15c-.132.856-1.058 1.683-2.316 1.683zm-.033-4.582c-.97 0-1.588.657-1.72 1.434h3.264c-.077-.767-.65-1.434-1.544-1.434z"/><path fill="#000" fill-rule="evenodd" d="M26.431 5.405c-.39.403-.628.984-.628 1.678 0 .668.234 1.235.626 1.632.389.394.95.637 1.655.637.945 0 1.654-.538 1.897-1.136l-.091-.018c-.259.632-.955 1.13-1.806 1.13-.608 0-1.157-.207-1.55-.604-.39-.394-.604-.949-.604-1.61v-.287h-.002l.002-.012v-.013h.003l.056-.334c.152-.889.88-1.699 2.062-1.699 1.126 0 1.8.845 1.888 1.718l.031.315h.156c-.1-1.315-1.082-2.038-2.075-2.038-.68 0-1.233.242-1.62.641zm-.519-.41c.52-.537 1.264-.853 2.139-.853 1.514 0 2.82 1.178 2.771 2.979l-.008.303H26.64c.053.387.204.68.407.885.252.253.608.396 1.037.396.64 0 1.139-.44 1.214-.919l.053-.331 1.435.282-.044.286c-.157 1.014-1.233 1.952-2.658 1.952-.894 0-1.645-.315-2.17-.845-.52-.528-.8-1.25-.8-2.047 0-.82.281-1.554.798-2.088zm.865 1.209h2.4c-.169-.483-.585-.812-1.126-.812-.615 0-1.065.332-1.274.812z" clip-rule="evenodd"/><path fill="#000" d="M20.764 7.91c.044.578.562 1.106 1.654 1.106.883 0 1.412-.349 1.412-.937 0-.587-.54-.747-1.147-.807l-1.158-.12c-.563-.059-1.313-.447-1.313-1.324 0-.608.695-1.405 2.15-1.405 1.678 0 2.008 1.046 2.008 1.425l-.706.13c-.044-.381-.286-.978-1.3-.978-.85 0-1.39.428-1.39.807 0 .379.287.618.75.667l1.17.12c1.224.13 1.742.807 1.731 1.514-.01.777-.673 1.564-2.228 1.564-1.72 0-2.394-.956-2.383-1.594l.75-.169z"/><path fill="#000" fill-rule="evenodd" d="M21.119 5.03c-.397.238-.562.57-.562.798 0 .666.554.967 1.007 1.016l1.157.12c.313.03.666.09.947.251a.95.95 0 0 1 .507.864c0 .39-.182.719-.516.94-.322.213-.755.308-1.241.308-.607 0-1.094-.147-1.44-.408a1.395 1.395 0 0 1-.48-.628l-.105.024c.136.449.688 1.047 2.003 1.047.713 0 1.178-.18 1.462-.41.284-.232.417-.538.421-.847a1.013 1.013 0 0 0-.31-.758c-.215-.209-.568-.385-1.116-.443l-1.17-.12c-.286-.03-.55-.123-.748-.295a.881.881 0 0 1-.307-.681c0-.312.209-.589.49-.779zm2.252-.097a1.296 1.296 0 0 1 .558.678l.05-.009a1.109 1.109 0 0 0-.246-.406 1.262 1.262 0 0 0-.362-.263zm-3.504.895c0-.823.901-1.716 2.496-1.716.926 0 1.529.293 1.894.68.354.373.458.804.458 1.056v.254l-1.354.249-.04-.341a.775.775 0 0 0-.201-.456c-.118-.12-.332-.242-.757-.242-.362 0-.638.092-.814.205-.185.118-.231.236-.231.291 0 .113.04.184.096.233.062.054.171.106.349.125l1.17.12c.676.071 1.193.299 1.541.638.348.339.501.765.495 1.19m0 0c-.007.467-.21.943-.65 1.3-.438.357-1.08.57-1.923.57-1.882 0-2.742-1.07-2.727-1.91l.004-.239 1.406-.317.028.37a.75.75 0 0 0 .311.552c.197.148.515.264 1 .264.397 0 .67-.079.833-.187a.49.49 0 0 0 .234-.438c0-.186-.074-.274-.186-.338-.14-.08-.36-.13-.654-.16h-.001l-1.159-.119c-.672-.071-1.618-.547-1.618-1.634" clip-rule="evenodd"/><path fill="#000" d="M12.345 9.584V2.31h1.334l3.982 6.486V2.31h.86v7.273h-1.29l-4.026-6.585v6.585h-.86z"/><path fill="#000" fill-rule="evenodd" d="M12 2h1.882l3.435 5.593V2h1.55v7.895h-.861V10l-.064-.105h-.914L13.55 4.207v5.688H12V2zm6.006 7.272h.171v-6.65h-.171v6.65zm-.447 0h-.124l-3.928-6.424-.647.15v6.274h-.17v-6.65h.786l4.083 6.65z" clip-rule="evenodd"/></svg>
